HIERARCHY
ROOT Hips
{
	OFFSET -0.001795 -0.223333 0.028219
	CHANNELS 6 Xposition Yposition Zposition Zrotation Yrotation Xrotation 
	JOINT LeftUpLeg
	{
		OFFSET 0.069520 -0.091406 -0.006815
		CHANNELS 3 Zrotation Yrotation Xrotation
		JOINT LeftLeg
		{
			OFFSET 0.034277 -0.375199 -0.004496
			CHANNELS 3 Zrotation Yrotation Xrotation
			JOINT LeftFoot
			{
				OFFSET -0.013596 -0.397961 -0.043693
				CHANNELS 3 Zrotation Yrotation Xrotation
				JOINT LeftToe
				{
					OFFSET 0.026358 -0.055791 0.119288
					CHANNELS 3 Zrotation Yrotation Xrotation
					End Site
					{
						OFFSET 0.000000 0.000000 0.000000
					}
				}
			}
		}
	}
	JOINT RightUpLeg
	{
		OFFSET -0.067670 -0.090522 -0.004320
		CHANNELS 3 Zrotation Yrotation Xrotation
		JOINT RightLeg
		{
			OFFSET -0.038290 -0.382569 -0.008850
			CHANNELS 3 Zrotation Yrotation Xrotation
			JOINT RightFoot
			{
				OFFSET 0.015774 -0.398415 -0.042312
				CHANNELS 3 Zrotation Yrotation Xrotation
				JOINT RightToe
				{
					OFFSET -0.025372 -0.048144 0.123348
					CHANNELS 3 Zrotation Yrotation Xrotation
					End Site
					{
						OFFSET 0.000000 0.000000 0.000000
					}
				}
			}
		}
	}
	JOINT Spine
	{
		OFFSET -0.002533 0.108963 -0.026696
		CHANNELS 3 Zrotation Yrotation Xrotation
		JOINT Spine1
		{
			OFFSET 0.005487 0.135180 0.001092
			CHANNELS 3 Zrotation Yrotation Xrotation
			JOINT Spine2
			{
				OFFSET 0.001457 0.052922 0.025425
				CHANNELS 3 Zrotation Yrotation Xrotation
				JOINT Neck
				{
					OFFSET -0.002778 0.213870 -0.042857
					CHANNELS 3 Zrotation Yrotation Xrotation
					JOINT Head
					{
						OFFSET 0.005152 0.064970 0.051349
						CHANNELS 3 Zrotation Yrotation Xrotation
						End Site
						{
							OFFSET 0.000000 0.000000 0.000000
						}
					}
				}
				JOINT LeftShoulder
				{
					OFFSET 0.078845 0.121749 -0.034090
					CHANNELS 3 Zrotation Yrotation Xrotation
					JOINT LeftArm
					{
						OFFSET 0.090977 0.030469 -0.008868
						CHANNELS 3 Zrotation Yrotation Xrotation
						JOINT LeftForeArm
						{
							OFFSET 0.259612 -0.012772 -0.027456
							CHANNELS 3 Zrotation Yrotation Xrotation
							JOINT LeftHand
							{
								OFFSET 0.249234 0.008986 -0.001171
								CHANNELS 3 Zrotation Yrotation Xrotation
								End Site
								{
									OFFSET 0.000000 0.000000 0.000000
								}
							}
						}
					}
				}
				JOINT RightShoulder
				{
					OFFSET -0.081759 0.118833 -0.038615
					CHANNELS 3 Zrotation Yrotation Xrotation
					JOINT RightArm
					{
						OFFSET -0.096012 0.032551 -0.009143
						CHANNELS 3 Zrotation Yrotation Xrotation
						JOINT RightForeArm
						{
							OFFSET -0.253742 -0.013329 -0.021401
							CHANNELS 3 Zrotation Yrotation Xrotation
							JOINT RightHand
							{
								OFFSET -0.255298 0.007772 -0.005559
								CHANNELS 3 Zrotation Yrotation Xrotation
								End Site
								{
									OFFSET 0.000000 0.000000 0.000000
								}
							}
						}
					}
				}
			}
		}
	}
}
MOTION
Frames: 15
Frame Time: 0.050000
0.691426 0.928021 1.788413 1.027877 -15.277006 1.872876 -9.921111 0.835824 3.888698 0.424536 -0.095745 1.538430 1.451622 2.942198 -1.595495 0.000000 0.000000 0.000000 8.229915 5.474423 -27.657894 -2.472503 1.789945 17.125556 2.033653 -1.331105 8.693142 0.000000 0.000000 0.000000 3.144816 -0.530805 8.550119 5.002043 -2.075548 -5.998232 -9.917238 -10.760223 12.896048 4.749330 -3.023438 -26.420782 0.000000 0.000000 0.000000 -7.036471 -26.940026 13.725672 -40.212826 -51.461502 13.818700 18.350329 -28.611924 -2.735252 0.000000 0.000000 0.000000 15.973146 3.514441 -3.933123 65.158897 5.721654 -4.241542 7.624227 34.459413 1.435459 0.000000 0.000000 0.000000 
0.700144 0.924983 1.817287 0.936585 -15.520853 3.079258 -10.536932 0.648682 2.663015 -0.186272 -0.046956 5.319119 1.405436 2.366974 -3.859419 0.000000 0.000000 0.000000 8.830045 5.683197 -27.983770 -3.199607 1.854668 16.217258 2.603813 -3.042240 13.469501 0.000000 0.000000 0.000000 4.418591 -0.734697 10.194169 4.753594 -1.979362 -5.676971 -9.733176 -10.443540 13.043924 5.208616 -3.103152 -27.416338 0.000000 0.000000 0.000000 -5.739748 -26.705918 13.075223 -43.375390 -52.386880 15.952852 21.035930 -30.984225 -3.586976 0.000000 0.000000 0.000000 14.633556 2.822684 -3.721278 66.418124 6.092291 -4.546938 5.981651 34.694020 1.063330 0.000000 0.000000 0.000000 
0.705515 0.925241 1.841667 0.815248 -17.134983 5.344137 -10.083074 -0.100626 -1.311695 -1.397757 0.303844 10.792094 1.426758 2.462623 -3.903877 0.000000 0.000000 0.000000 9.204192 6.050112 -28.888566 -4.679022 2.216150 16.088074 3.070538 -2.626683 13.814151 0.000000 0.000000 0.000000 4.841470 -0.890271 12.266042 6.176156 -2.526499 -5.238929 -10.406742 -8.506879 12.048200 6.254089 -3.185265 -28.889554 0.000000 0.000000 0.000000 -4.485108 -25.208220 11.774619 -47.218246 -52.068386 17.755525 21.473316 -32.273043 -3.801119 0.000000 0.000000 0.000000 16.798654 2.972510 -3.988853 64.545761 7.604183 -2.976769 4.027004 36.629908 0.648023 0.000000 0.000000 0.000000 
0.708221 0.928615 1.859588 0.192645 -19.616020 8.413533 -6.990122 -0.987534 -7.290402 -5.162099 1.926547 17.597846 1.958923 3.637039 -4.803020 0.000000 0.000000 0.000000 8.897697 6.625802 -30.879204 -4.976114 2.161215 15.024635 5.165838 -0.090940 15.591909 0.000000 0.000000 0.000000 5.311638 -1.026876 14.002111 5.469967 -2.251319 -4.181174 -9.247672 -7.461417 10.967181 6.712080 -3.298549 -28.950220 0.000000 0.000000 0.000000 -2.871657 -22.894428 10.310458 -52.256910 -51.418470 20.289574 22.645475 -31.783657 -3.956772 0.000000 0.000000 0.000000 16.890443 3.818305 -3.680733 64.815645 10.599091 -1.206268 3.542693 38.032904 0.458145 0.000000 0.000000 0.000000 
0.708826 0.933792 1.871152 -0.471023 -21.518738 11.203370 -3.454487 -1.429862 -15.001401 -9.049321 5.085016 27.406652 1.736667 2.996735 -4.365087 0.000000 0.000000 0.000000 8.916054 7.304902 -32.796328 -6.381130 2.418106 14.522932 8.045645 5.523734 15.381069 0.000000 0.000000 0.000000 4.499292 -0.943531 16.412324 5.293507 -2.077050 -6.268202 -8.047371 -5.396475 12.154558 5.372704 -2.374468 -31.469039 0.000000 0.000000 0.000000 -4.093437 -21.930485 10.327056 -54.064878 -49.937485 19.929199 22.522902 -30.178093 -3.650180 0.000000 0.000000 0.000000 16.788529 4.589085 -3.090632 64.749599 13.568841 0.293637 3.419639 41.568792 0.578298 0.000000 0.000000 0.000000 
0.708430 0.936359 1.878664 -0.701749 -22.695902 13.247915 0.169393 -1.025084 -22.796845 -10.305966 7.357877 34.460833 2.261257 4.288605 -2.587332 0.000000 0.000000 0.000000 8.033981 7.257428 -33.334761 -5.626617 2.039183 13.177746 9.286863 8.490874 14.815991 0.000000 0.000000 0.000000 3.482114 -0.727091 19.034571 5.130263 -1.982579 -6.454515 -7.617956 -4.072061 12.193134 6.356371 -2.536970 -32.457196 0.000000 0.000000 0.000000 -4.350664 -22.976071 10.878444 -49.070606 -51.019779 17.976425 23.582410 -26.064678 -3.413592 0.000000 0.000000 0.000000 15.622329 4.753364 -2.485861 66.116539 16.724432 1.872231 5.751798 47.009431 1.712313 0.000000 0.000000 0.000000 
0.708545 0.940770 1.883283 -1.146026 -24.153055 15.080895 2.353165 -0.234441 -27.964162 -7.538091 5.812362 33.599800 4.221221 8.505488 -4.306029 0.000000 0.000000 0.000000 8.220116 7.430121 -33.436879 -5.894610 1.860162 11.639544 10.400951 9.606076 15.905482 0.000000 0.000000 0.000000 1.767722 -0.163810 22.491881 5.060330 -1.907544 -7.259897 -7.784361 -1.994081 12.033356 9.200003 -3.185264 -34.267202 0.000000 0.000000 0.000000 -3.110851 -25.541140 11.503046 -42.631960 -53.875522 16.350889 25.468274 -20.463799 -3.026409 0.000000 0.000000 0.000000 15.490180 5.007492 -1.946472 67.314076 20.762417 4.327108 4.314594 52.729073 1.600723 0.000000 0.000000 0.000000 
0.709269 0.942965 1.886992 -2.053130 -24.410641 17.215595 3.637529 0.251459 -29.518909 -3.796552 2.512688 24.670376 5.474919 11.342283 -1.887370 0.000000 0.000000 0.000000 8.143798 7.805189 -34.614011 -5.354527 1.567273 10.325618 10.950207 9.938110 16.813326 0.000000 0.000000 0.000000 1.154048 0.125920 24.308041 4.519654 -1.666674 -8.217216 -7.719818 -2.522500 13.637296 11.273376 -3.864162 -35.549813 0.000000 0.000000 0.000000 -0.606437 -27.249892 11.566295 -36.177888 -56.447941 14.709336 27.865089 -15.875617 -2.557870 0.000000 0.000000 0.000000 14.730477 7.292608 -0.901163 69.362316 24.965696 6.776399 -3.502304 59.943605 -2.708619 0.000000 0.000000 0.000000 
0.711229 0.944050 1.890620 -2.812271 -25.172213 19.725855 4.981814 0.750984 -29.932807 -2.322944 0.932972 14.241517 4.889817 9.722514 5.082735 0.000000 0.000000 0.000000 8.601708 8.280515 -35.473902 -5.586325 1.503322 9.597449 10.848313 10.177449 16.224201 0.000000 0.000000 0.000000 -0.011911 0.563434 25.068156 4.616014 -1.671637 -8.198263 -7.665394 -2.084159 13.412356 10.742342 -3.407685 -36.463945 0.000000 0.000000 0.000000 2.227328 -28.063751 10.990876 -31.043020 -58.679052 13.373058 30.489414 -12.472861 -2.093269 0.000000 0.000000 0.000000 14.757069 9.239264 0.064769 70.172804 28.913559 9.475239 -15.492099 63.923132 -10.182781 0.000000 0.000000 0.000000 
0.714104 0.942158 1.894734 -3.737845 -25.683955 21.855630 6.516756 1.301661 -30.332005 -2.336708 0.714316 10.703836 5.243823 10.116117 8.835886 0.000000 0.000000 0.000000 8.753098 8.717868 -36.476328 -5.319522 1.495437 9.855364 9.970409 9.018730 15.435077 0.000000 0.000000 0.000000 -0.136632 0.706353 25.732471 3.736457 -1.377425 -7.359308 -7.430405 -2.395534 12.109459 11.036907 -3.703847 -34.966553 0.000000 0.000000 0.000000 4.260721 -29.023146 10.794853 -26.895794 -58.848682 11.686703 33.414779 -11.779637 -2.113127 0.000000 0.000000 0.000000 14.058667 10.342771 0.606111 69.839470 32.323548 11.675763 -30.165205 66.396319 -20.570351 0.000000 0.000000 0.000000 
0.717421 0.942393 1.897395 -4.114084 -26.757410 23.673483 7.457966 1.705576 -30.499449 -3.008884 0.809743 9.078179 6.072479 11.394727 9.716033 0.000000 0.000000 0.000000 8.656770 8.871015 -36.794657 -5.214338 1.367460 9.067164 9.442165 8.012845 15.061111 0.000000 0.000000 0.000000 -1.134074 1.173805 26.227697 3.531275 -1.299078 -6.732576 -7.242847 -2.416846 11.859226 11.219020 -3.468973 -36.434789 0.000000 0.000000 0.000000 6.868844 -28.970629 9.980135 -26.792064 -58.433710 11.889154 38.356030 -12.752609 -2.588147 0.000000 0.000000 0.000000 13.273500 11.852107 1.372535 69.416400 37.409801 14.790123 -45.826660 66.244630 -31.223368 0.000000 0.000000 0.000000 
0.720409 0.943364 1.897841 -4.373172 -27.824949 25.398321 8.216547 2.186569 -31.311638 -4.183232 1.088762 8.568346 6.507840 12.012113 9.788224 0.000000 0.000000 0.000000 8.554802 9.002610 -37.002547 -4.917860 1.155268 7.823852 9.285096 7.684022 14.837611 0.000000 0.000000 0.000000 -1.714246 1.592007 27.177091 3.122204 -1.140580 -7.258718 -7.608599 -2.816660 11.764836 11.389337 -3.402862 -37.141700 0.000000 0.000000 0.000000 8.509680 -28.370883 9.304490 -26.197540 -57.992642 11.827878 41.547189 -13.296381 -2.835616 0.000000 0.000000 0.000000 11.812869 14.004726 2.479788 67.518120 43.410957 17.825751 -60.520279 62.155000 -38.818201 0.000000 0.000000 0.000000 
0.722829 0.943796 1.896111 -4.634221 -28.869938 26.466652 8.737480 2.639099 -32.175236 -4.808928 1.309938 9.081945 6.805575 12.414377 9.675483 0.000000 0.000000 0.000000 8.363217 9.137878 -37.265472 -4.295334 0.945701 6.871923 9.443260 7.191320 15.511923 0.000000 0.000000 0.000000 -2.477259 1.992993 27.375901 3.279233 -1.188134 -7.104940 -7.960918 -2.266158 11.252262 12.132739 -3.519310 -37.422628 0.000000 0.000000 0.000000 10.241578 -28.889354 8.940443 -24.025238 -57.666482 10.780576 41.878724 -12.316795 -2.535523 0.000000 0.000000 0.000000 10.402830 15.449446 3.448845 63.638909 49.492029 20.080523 -67.946151 56.247284 -39.002735 0.000000 0.000000 0.000000 
0.725301 0.943464 1.893150 -4.932032 -29.503077 27.264824 8.969571 2.902024 -32.734558 -5.245261 1.458418 9.307664 7.639269 13.832040 9.352574 0.000000 0.000000 0.000000 8.280620 9.440313 -37.953090 -3.773077 0.853516 6.667661 8.895745 5.528440 15.889723 0.000000 0.000000 0.000000 -2.832479 2.221630 27.539662 3.376956 -1.219373 -6.497607 -8.610662 -2.790257 10.375880 12.407080 -4.015539 -35.305021 0.000000 0.000000 0.000000 11.671919 -29.789018 8.837963 -19.455957 -56.360616 8.392826 40.052788 -9.703478 -1.618760 0.000000 0.000000 0.000000 8.533897 17.739312 4.646101 56.719251 55.708417 20.289616 -68.914062 47.826144 -32.863672 0.000000 0.000000 0.000000 
0.727863 0.942161 1.889840 -5.441688 -30.368263 27.613237 9.630514 3.210979 -32.448703 -5.937390 1.616310 8.705660 8.255900 14.831570 9.194603 0.000000 0.000000 0.000000 8.144384 9.509319 -37.978712 -3.484828 0.790377 6.434177 8.757788 4.920864 16.036118 0.000000 0.000000 0.000000 -3.036688 2.522704 28.429760 3.137567 -1.138702 -6.157320 -8.740409 -2.854108 9.554985 11.929187 -4.101543 -33.875533 0.000000 0.000000 0.000000 13.262048 -31.310013 8.856215 -14.735584 -55.887203 6.215492 36.961852 -6.561884 -0.689502 0.000000 0.000000 0.000000 5.578400 19.038372 5.528962 50.326295 61.809870 19.688601 -66.771840 39.822942 -25.482692 0.000000 0.000000 0.000000 
